<?xml version="1.0" encoding="UTF-8" standalone="no"?>
<!DOCTYPE svg PUBLIC "-//W3C//DTD SVG 1.1//EN" "http://www.w3.org/Graphics/SVG/1.1/DTD/svg11.dtd">
<svg xmlns="http://www.w3.org/2000/svg" xmlns:xlink="http://www.w3.org/1999/xlink" version="1.1" width="2595.5555pt" height="1460.3165pt" viewBox="0 0 2595.5555 1460.3165">
<g enable-background="new">
<g>
<g id="Layer-1" data-name="Layer 1">
<clipPath id="cp0">
<path transform="matrix(2.7777777,0,0,-2.7777777,0,1460.3165)" d="M 0 525.714 L 934.4 525.714 L 934.4 0 L 0 0 Z "/>
</clipPath>
<g clip-path="url(#cp0)">
<path transform="matrix(2.7777777,0,0,-2.7777777,1936.5078,730.1577)" d="M 0 0 C 0 -126.994 -102.949 -229.943 -229.943 -229.943 C -356.937 -229.943 -459.886 -126.994 -459.886 0 C -459.886 126.994 -356.937 229.943 -229.943 229.943 C -102.949 229.943 0 126.994 0 0 " fill="#ffdd00"/>
<path transform="matrix(2.7777777,0,0,-2.7777777,52.039167,1155.528)" d="M 0 0 C 5.732 -1.103 29.304 6.537 33.333 7.74 C 89.125 24.409 131.012 63.141 183.374 85.626 C 201.65 93.475 222.865 99.472 240.721 87.517 C 266.567 70.21 276.354 38.014 307.879 28.12 C 335.948 19.311 365.776 30.478 387.782 48.287 C 440.348 90.83 515.579 119.473 583.433 106.527 C 673.453 89.353 765.409 2.609 859.276 56.438 C 859.276 56.438 835.093 -31.859 732.494 -12.115 C 705.136 -6.851 680.958 7.068 656.375 19.451 C 632.371 31.543 607.062 41.172 581.077 48.064 C 548.138 56.802 511.19 63.51 477.103 53.709 C 445.059 44.495 418.932 21.419 395.607 -1.418 C 375.087 -21.51 355.133 -40.146 323.929 -36.751 C 293.726 -33.464 274.674 -8.078 251.043 8.271 C 217.841 31.243 181.298 19.132 148.892 .358 C 119.192 -16.846 84.865 -25.14 50.88 -20.337 C 32.706 -17.77 14.269 -11.891 0 0 " fill="#009bdf"/>
</g>
</g>
</g>
</g>
</svg>
